<svg data-id="69087" data-kw="report1" height="16px" id="imgView" version="1.1" viewBox="0 0 422.074 422.073" width="16px" x="0px" xml:space="preserve" xmlns="http://www.w3.org/2000/svg" xmlns:xlink="http://www.w3.org/1999/xlink" y="0px" class="detail convertSvgInline replaced-svg" style="fill: grey;">
<g><g><g><path d="M229.001,392.729H44.522V27.274h198.907V82.69c0,5.6,4.534,10.133,10.131,10.133h53.791l0.009,181.564     c9.418,0.215,18.602,1.963,27.266,5.188V77.743c0-2.168-0.863-4.248-2.396-5.787L262.667,2.395     C261.133,0.862,259.053,0,256.881,0H41.796C28.262,0,17.25,11.008,17.25,24.543v370.915c0,13.533,11.012,24.543,24.547,24.543     h206.973C240.466,412.384,233.714,403.114,229.001,392.729z"></path><path d="M404.824,311.648c0-4.586-1.785-8.896-5.027-12.142l-12.844-12.844c-3.244-3.242-7.555-5.027-12.139-5.027     c-4.582,0-8.896,1.785-12.141,5.029l-19.602,19.6c-10.47-7.506-23.304-11.928-37.168-11.928     c-35.273,0-63.867,28.596-63.867,63.869c0,35.271,28.594,63.867,63.867,63.867c35.271,0,63.867-28.597,63.867-63.867     c0-1.43-0.051-2.848-0.145-4.254l30.166-30.166C403.039,320.546,404.824,316.232,404.824,311.648z M385.857,315.467     l-61.43,61.428c-1.295,1.296-3.051,2.021-4.881,2.021h-0.002c-1.832,0-3.588-0.729-4.881-2.023l-28.465-28.51     c-2.691-2.693-2.689-7.062,0.002-9.758l5.483-5.479c2.69-2.693,7.058-2.695,9.755-0.007l18.104,18.058l51.019-51.021     c1.296-1.296,3.052-2.021,4.882-2.021s3.586,0.727,4.881,2.021l5.531,5.53C388.552,308.4,388.552,312.77,385.857,315.467z"></path><path d="M188.141,108.951l-57.438,13.148l13.149-57.438c-20.125-5.047-42.319,0.296-58.059,16.035     c-23.835,23.834-23.835,62.478,0,86.312c23.835,23.835,62.478,23.835,86.313,0C187.843,151.269,193.187,129.075,188.141,108.951z     "></path><path d="M188.689,64.113c-8.097-8.096-17.901-13.439-28.254-16.035l-13.149,57.437l57.438-13.149     C202.128,82.014,196.785,72.209,188.689,64.113z"></path><g><path d="M89.161,249.945h20.993c5.813,0,10.542-4.729,10.542-10.543c0-5.814-4.729-10.543-10.542-10.543H89.161      c-5.813,0-10.543,4.729-10.543,10.543C78.618,245.216,83.348,249.945,89.161,249.945z"></path><path d="M170.153,267.859H89.161c-5.813,0-10.543,4.729-10.543,10.543c0,5.813,4.729,10.543,10.543,10.543h80.993      c5.813,0,10.542-4.729,10.542-10.543C180.695,272.588,175.966,267.859,170.153,267.859z"></path><path d="M158.153,306.859H89.161c-5.813,0-10.543,4.729-10.543,10.543c0,5.813,4.729,10.543,10.543,10.543h68.993      c5.813,0,10.542-4.729,10.542-10.543C168.695,311.588,163.966,306.859,158.153,306.859z"></path></g></g></g>
</g>
</svg>
