<svg height="32" id="svg2" inkscape:version="0.91 r13725" sodipodi:docname="xcloud.svg" version="1.1" viewBox="0 0 40 32" width="40" x="0px" xmlns="http://www.w3.org/2000/svg" xmlns:cc="http://creativecommons.org/ns#" xmlns:dc="http://purl.org/dc/elements/1.1/" xmlns:inkscape="http://www.inkscape.org/namespaces/inkscape" xmlns:rdf="http://www.w3.org/1999/02/22-rdf-syntax-ns#" xmlns:sodipodi="http://sodipodi.sourceforge.net/DTD/sodipodi-0.dtd" xmlns:svg="http://www.w3.org/2000/svg" y="0px"><metadata id="metadata12"><rdf:rdf><cc:work rdf:about=""><dc:format>image/svg+xml</dc:format><dc:type rdf:resource="http://purl.org/dc/dcmitype/StillImage"></dc:type><dc:title></dc:title></cc:work></rdf:rdf></metadata><defs id="defs10"></defs><sodipodi:namedview bordercolor="#666666" borderopacity="1" gridtolerance="10" guidetolerance="10" id="namedview8" inkscape:current-layer="g4" inkscape:cx="19.402957" inkscape:cy="15.753357" inkscape:pageopacity="0" inkscape:pageshadow="2" inkscape:window-height="745" inkscape:window-maximized="0" inkscape:window-width="1881" inkscape:window-x="138" inkscape:window-y="427" inkscape:zoom="3.337544" objecttolerance="10" pagecolor="#ffffff" showgrid="false"></sodipodi:namedview><g id="g4" transform="matrix(0.44,0,0,0.44,-2.5613949,-423.68403)" style="fill: rgb(255, 0, 0);"><path d="m 45.042874,969.00026 c -12.989722,0 -22.060344,11.55001 -21.03125,23.125 -8.363515,0.57321 -14.9687499,7.792 -14.9687499,15.87504 0,9.8523 7.5387799,17 15.9999999,17 l 12,0 c 0.528313,0.01 1.014242,-0.4717 1.014242,-1 0,-0.5284 -0.485929,-1.0075 -1.014242,-1 l -12,0 c -7.3381,0 -14,-6.1607 -14,-15 0,-7.2801 6.291083,-14.00004 14,-14.00004 0.579956,0.007 1.090601,-0.58337 1,-1.15625 -1.50281,-10.70142 6.856644,-21.84375 19,-21.84375 8.157628,0 14.250867,4.75171 17.09375,10.4375 0.23759,0.46603 0.877329,0.67432 1.34375,0.4375 3.686951,-1.84348 8.103936,-1.60639 11.5625,0.46875 3.458564,2.07514 6,5.96181 6,11.65625 0.0089,0.46494 0.384434,0.89614 0.84375,0.96875 6.551424,1.09924 11.156248,7.53519 11.156248,14.03129 0,7.783 -6.268459,14 -15.999998,14 l -10,0 c -0.528313,-0.01 -1.014242,0.4716 -1.014242,1 0,0.5283 0.485929,1.0074 1.014242,1 l 10,0 c 10.606145,0 17.999998,-7.1236 17.999998,-16 0,-7.1804 -4.88297,-14.15421 -12.093748,-15.78129 -0.245947,-5.88289 -3.043944,-10.27637 -6.90625,-12.59375 -3.787467,-2.27248 -8.46508,-2.54887 -12.59375,-0.8125 -3.310103,-5.96808 -9.830947,-10.8125 -18.40625,-10.8125 z m -1.125,45.96874 c -0.757272,0.074 -1.144058,1.1934 -0.59375,1.7188 l 7.28125,7.3125 -7.28125,7.2812 c -0.371761,0.3756 -0.366283,1.0566 0.01147,1.4261 0.18564,0.1816 0.452139,0.2927 0.70728,0.2927 0.266717,0 0.531946,-0.1193 0.71875,-0.3125 l 7.28125,-7.2813 7.28125,7.2813 c 0.190785,0.1927 0.457502,0.312 0.71875,0.3125 0.253696,4e-4 0.517925,-0.124 0.698995,-0.3011 0.37493,-0.3668 0.384322,-1.0406 0.01976,-1.4177 l -7.281255,-7.2812 7.28125,-7.3125 c 0.583613,-0.5623 0.05912,-1.7643 -0.75,-1.7188 -0.257929,0.01 -0.510228,0.1249 -0.6875,0.3125 l -7.28125,7.2813 -7.28125,-7.2813 c -0.211936,-0.2277 -0.534609,-0.3472 -0.84375,-0.3125 z" id="path6" inkscape:connector-curvature="0" style="color: rgb(0, 0, 0); font-style: normal; font-weight: normal; font-stretch: normal; font-size: medium; line-height: normal; font-family: Sans; text-indent: 0px; text-align: start; text-decoration: none; letter-spacing: normal; word-spacing: normal; text-transform: none; direction: ltr; writing-mode: lr-tb; baseline-shift: baseline; text-anchor: start; display: inline; overflow: visible; visibility: visible; opacity: 1; fill: rgb(255, 0, 0); fill-opacity: 1; stroke: none; stroke-width: 2; marker: none;"></path></g></svg>
